<svg width="119" height="97" viewBox="0 0 119 97" fill="none" xmlns="http://www.w3.org/2000/svg">
<path d="M56 19L56.6708 17.6584L56.7165 17.6812L56.7605 17.7071L56 19ZM64.5 24L65.2605 22.7071L65.3581 22.7645L65.4459 22.8358L64.5 24ZM15 4.5L15.2549 3.02181L15.282 3.02649L15.309 3.03218L15 4.5ZM72.5 30.5L73.4459 29.3358L73.5293 29.4036L73.6022 29.4826L72.5 30.5ZM78.5 37L79.6022 35.9826L79.6616 36.0469L79.7131 36.1177L78.5 37ZM82.5 42.5L83.7131 41.6177L83.7441 41.6603L83.772 41.705L82.5 42.5ZM96 65L94.7082 65.7624L94.7028 65.7533L94.6976 65.7442L96 65ZM115.453 95.8741C115.246 96.6763 114.428 97.159 113.626 96.9522L100.553 93.583C99.7506 93.3763 99.2679 92.5583 99.4746 91.7561C99.6814 90.9539 100.499 90.4712 101.302 90.6779L112.922 93.6728L115.917 82.0525C116.123 81.2503 116.941 80.7676 117.744 80.9744C118.546 81.1811 119.028 81.999 118.822 82.8013L115.453 95.8741ZM92 58L93.2655 57.1947L93.2847 57.2248L93.3024 57.2558L92 58ZM24.5 6.5L24.809 5.03218L24.8556 5.04198L24.9015 5.05472L24.5 6.5ZM45 13.5L45.5769 12.1154L45.6246 12.1353L45.6708 12.1584L45 13.5ZM86.25 48.5L87.522 47.705L87.5341 47.7244L87.5457 47.7442L86.25 48.5ZM88 51.5L86.7138 52.2717L86.709 52.2638L86.7043 52.2558L88 51.5ZM90.25 55.25L88.9845 56.0553L88.9739 56.0387L88.9638 56.0217L90.25 55.25ZM33.5 9L33.9015 7.55472L33.9577 7.57035L34.0126 7.59031L33.5 9ZM39 11L39.5126 9.59031L39.5451 9.60211L39.5769 9.61538L39 11ZM29 7.75L28.5985 9.19528L28.5985 9.19528L29 7.75ZM75.5 33.75L76.6022 32.7326L76.6022 32.7326L75.5 33.75ZM56.7605 17.7071L65.2605 22.7071L63.7395 25.2929L55.2395 20.2929L56.7605 17.7071ZM0.75486 0.52181L15.2549 3.02181L14.7451 5.97819L0.24514 3.47819L0.75486 0.52181ZM65.4459 22.8358L73.4459 29.3358L71.5541 31.6642L63.5541 25.1642L65.4459 22.8358ZM79.7131 36.1177L83.7131 41.6177L81.2869 43.3823L77.2869 37.8823L79.7131 36.1177ZM97.2918 64.2376L115.292 94.7373L112.708 96.2621L94.7082 65.7624L97.2918 64.2376ZM93.3024 57.2558L97.3024 64.2558L94.6976 65.7442L90.6976 58.7442L93.3024 57.2558ZM15.309 3.03218L24.809 5.03218L24.191 7.96782L14.691 5.96782L15.309 3.03218ZM45.6708 12.1584L56.6708 17.6584L55.3292 20.3416L44.3292 14.8416L45.6708 12.1584ZM83.772 41.705L87.522 47.705L84.978 49.295L81.228 43.295L83.772 41.705ZM87.5457 47.7442L89.2957 50.7442L86.7043 52.2558L84.9543 49.2558L87.5457 47.7442ZM89.2862 50.7283L91.5362 54.4783L88.9638 56.0217L86.7138 52.2717L89.2862 50.7283ZM91.5155 54.4447L93.2655 57.1947L90.7345 58.8053L88.9845 56.0553L91.5155 54.4447ZM34.0126 7.59031L39.5126 9.59031L38.4874 12.4097L32.9874 10.4097L34.0126 7.59031ZM39.5769 9.61538L45.5769 12.1154L44.4231 14.8846L38.4231 12.3846L39.5769 9.61538ZM24.9015 5.05472L29.4015 6.30472L28.5985 9.19528L24.0985 7.94528L24.9015 5.05472ZM29.4015 6.30472L33.9015 7.55472L33.0985 10.4453L28.5985 9.19528L29.4015 6.30472ZM73.6022 29.4826L76.6022 32.7326L74.3978 34.7674L71.3978 31.5174L73.6022 29.4826ZM76.6022 32.7326L79.6022 35.9826L77.3978 38.0174L74.3978 34.7674L76.6022 32.7326Z" fill="white"/>
</svg>
