<svg width="103" height="78" viewBox="0 0 103 78" fill="none" xmlns="http://www.w3.org/2000/svg">
<path d="M30.0718 37.8307L28.933 36.8544L28.8769 36.9198L28.8287 36.9912L30.0718 37.8307ZM2.59903 76.6161C2.75664 77.4294 3.54372 77.9609 4.35701 77.8033L17.6104 75.2348C18.4237 75.0772 18.9553 74.2902 18.7976 73.4769C18.64 72.6636 17.853 72.132 17.0397 72.2896L5.25884 74.5727L2.97577 62.7919C2.81815 61.9786 2.03108 61.4471 1.21778 61.6047C0.404486 61.7623 -0.12705 62.5494 0.030564 63.3627L2.59903 76.6161ZM85.0718 2.3307L85.0718 0.830701L84.9349 0.830701L84.8003 0.855468L85.0718 2.3307ZM67.5 7.5L66.9289 6.11298L66.8782 6.13385L66.8292 6.15836L67.5 7.5ZM57.5 12.5L56.8292 11.1584L56.7204 11.2128L56.6218 11.284L57.5 12.5ZM48.5 19L47.6218 17.784L47.5564 17.8312L47.4966 17.8851L48.5 19ZM76 4L75.7285 2.52477L75.5741 2.55319L75.4289 2.61298L76 4ZM38.5 28L37.4966 26.8851L37.4244 26.95L37.3612 27.0237L38.5 28ZM28.8287 36.9912L2.82854 75.4912L5.31471 77.1702L31.3148 38.6702L28.8287 36.9912ZM102.572 0.830701L85.0718 0.830701L85.0718 3.8307L102.572 3.8307L102.572 0.830701ZM66.8292 6.15836L56.8292 11.1584L58.1708 13.8416L68.1708 8.84164L66.8292 6.15836ZM56.6218 11.284L47.6218 17.784L49.3782 20.216L58.3782 13.716L56.6218 11.284ZM84.8003 0.855468L75.7285 2.52477L76.2715 5.47523L85.3432 3.80593L84.8003 0.855468ZM75.4289 2.61298L66.9289 6.11298L68.0711 8.88702L76.5711 5.38702L75.4289 2.61298ZM47.4966 17.8851L37.4966 26.8851L39.5034 29.1149L49.5034 20.1149L47.4966 17.8851ZM37.3612 27.0237L28.933 36.8544L31.2105 38.807L39.6388 28.9763L37.3612 27.0237Z" fill="white"/>
</svg>
