<svg width="44" height="39" viewBox="0 0 44 39" fill="none" xmlns="http://www.w3.org/2000/svg">
<path fill-rule="evenodd" clip-rule="evenodd" d="M22.3333 32.4847L31.7947 37.3833C32.168 37.5764 32.5818 37.6786 33.0021 37.6813C33.4224 37.6841 33.8375 37.5875 34.2133 37.3993L42.192 33.41C42.6349 33.1887 43.0074 32.8485 43.2679 32.4274C43.5283 32.0064 43.6664 31.5211 43.6667 31.026V23.6553C43.6664 23.1602 43.5283 22.675 43.2679 22.2539C43.0074 21.8329 42.6349 21.4927 42.192 21.2713L33 16.674L23.7733 21.4527C23.3394 21.6775 22.9755 22.0173 22.7216 22.4349C22.4676 22.8525 22.3333 23.3319 22.3333 23.8207V32.4847Z" stroke="white" stroke-width="1.5" stroke-linecap="round" stroke-linejoin="round"/>
<path fill-rule="evenodd" clip-rule="evenodd" d="M2.44 33.2287L10.4613 37.3834C10.8347 37.5765 11.2484 37.6786 11.6687 37.6814C12.0891 37.6842 12.5041 37.5875 12.88 37.3994L22.3333 32.674V23.6554C22.3331 23.1603 22.195 22.675 21.9345 22.254C21.6741 21.8329 21.3015 21.4927 20.8587 21.2714L11.6667 16.674L2.44 21.4527C2.00601 21.6775 1.64216 22.0173 1.38821 22.4349C1.13425 22.8526 0.99996 23.3319 1 23.8207V30.8607C0.99996 31.3495 1.13425 31.8289 1.38821 32.2465C1.64216 32.6641 2.00601 33.0039 2.44 33.2287ZM11.6667 16.4847L21.128 21.3834C21.5014 21.5765 21.9151 21.6786 22.3354 21.6814C22.7557 21.6842 23.1708 21.5875 23.5467 21.3994L33 16.674V7.65538C32.9997 7.16028 32.8616 6.67503 32.6012 6.25398C32.3407 5.83292 31.9682 5.49269 31.5253 5.27138L23.5467 1.28205C23.1708 1.0939 22.7557 0.997278 22.3354 1.00006C21.9151 1.00284 21.5014 1.10495 21.128 1.29805L13.1067 5.45271C12.6727 5.67755 12.3088 6.01734 12.0549 6.43495C11.8009 6.85257 11.6666 7.33194 11.6667 7.82071V16.4847Z" stroke="white" stroke-width="1.6" stroke-linecap="round" stroke-linejoin="round"/>
<path d="M12.5893 6.46875L21.1413 10.7434C21.5115 10.9284 21.9196 11.0247 22.3333 11.0247C22.7471 11.0247 23.1552 10.9284 23.5253 10.7434L31.9867 6.51408M23.256 22.4688L31.808 26.7434C32.1781 26.9284 32.5862 27.0247 33 27.0247C33.4138 27.0247 33.8219 26.9284 34.192 26.7434L42.6507 22.5141M1.92267 22.4688L10.4747 26.7434C10.8448 26.9284 11.2529 27.0247 11.6667 27.0247C12.0804 27.0247 12.4885 26.9284 12.8587 26.7434L21.3173 22.5141M22.3333 11.3408V22.0074M33 27.3408V36.6741M11.6667 27.3408V36.6741" stroke="white" stroke-width="1.5" stroke-linecap="round" stroke-linejoin="round"/>
</svg>
