<svg width="314" height="293" viewBox="0 0 314 293" fill="none" xmlns="http://www.w3.org/2000/svg">
<path d="M190.928 112.997L258.719 1.15495M258.719 1.15495L313.237 159.486L267.76 290.309M258.719 1.15495L93.866 36.5025L1.21574 136.07M142.154 288.685L56.687 130.456M201.56 290.355L120.484 120.44M34.6613 192.099L216.588 179.427M242.013 239.055L64.0553 243.715M243.737 238.282L295.685 114.271M218.067 178.088L277.992 59.4742M240.25 32.216L299.281 196.148M217.285 68.7702L284.267 238.04M119.62 120.161L195.299 15.162M55.8235 130.177L144.442 26.2602M38.6966 96.4861L217.009 68.1555M239.635 32.4918L68.9691 65.6213M0.909985 136.873L190.125 112.691L267.081 291.947L88.7005 287.9L0.909985 136.873Z" stroke="#0A06C2" stroke-opacity="0.25" stroke-linecap="round" stroke-linejoin="round"/>
</svg>

