<svg width="33" height="32" viewBox="0 0 33 32" fill="none" xmlns="http://www.w3.org/2000/svg">
<path d="M16.8811 3C9.66301 3 3.79022 8.832 3.79022 16C3.79022 23.168 9.66301 29 16.8811 29C24.0993 29 29.972 23.168 29.972 16C29.972 8.832 24.0993 3 16.8811 3ZM16.8811 5C23.0097 5 27.9581 9.914 27.9581 16C27.9581 22.086 23.0097 27 16.8811 27C10.7526 27 5.80421 22.086 5.80421 16C5.80421 9.914 10.7526 5 16.8811 5ZM16.7865 10C13.4392 10 10.7445 12.676 10.7445 16C10.7445 19.324 13.4392 22 16.7865 22C19.2023 22 21.2676 20.562 22.2303 18.531L20.4056 17.688C19.7561 19.058 18.3997 20 16.7865 20C14.4936 20 12.7585 18.277 12.7585 16C12.7585 13.723 14.4936 12 16.7865 12C18.3997 12 19.7571 12.941 20.4056 14.313L22.2313 13.469C21.2666 11.438 19.2023 10 16.7855 10H16.7865Z" fill="#89D2DC"/>
</svg>
