<svg width="32" height="34" viewBox="0 0 32 34" fill="none" xmlns="http://www.w3.org/2000/svg">
<path d="M29.8146 13.8875C29.3687 13.3927 28.9089 12.8817 28.7581 12.4948C28.6238 12.1496 28.6137 11.4391 28.6048 10.8135C28.5858 9.46527 28.5618 7.78806 27.4419 6.59757C26.3221 5.40708 24.7475 5.38416 23.4807 5.35989C22.893 5.35045 22.2254 5.33967 21.9011 5.19675C21.5375 5.03631 21.0574 4.5469 20.5925 4.07233C19.6956 3.15687 18.5783 2.01627 17.0519 2.01627C15.5254 2.01627 14.4081 3.15687 13.5112 4.07233C13.0463 4.5469 12.5662 5.03631 12.2026 5.19675C11.8783 5.33967 11.2108 5.35045 10.623 5.35989C9.3562 5.38686 7.78033 5.40573 6.6643 6.60027C5.54827 7.7948 5.52421 9.46527 5.49887 10.8135C5.49 11.4391 5.47987 12.1496 5.34559 12.4948C5.19484 12.8817 4.73501 13.3927 4.2891 13.8875C3.42896 14.842 2.35727 16.0379 2.35727 17.6558C2.35727 19.2737 3.42896 20.4696 4.2891 21.4309C4.73501 21.9257 5.19484 22.4366 5.34559 22.8236C5.47987 23.1687 5.49 23.8793 5.49887 24.5048C5.51787 25.8531 5.54194 27.5303 6.66177 28.7208C7.7816 29.9113 9.3562 29.9342 10.623 29.9585C11.2108 29.9679 11.8783 29.9787 12.2026 30.1216C12.5662 30.282 13.0463 30.7714 13.5112 31.246C14.4081 32.1547 15.5317 33.2953 17.0519 33.2953C18.572 33.2953 19.6956 32.1547 20.5925 31.2393C21.0574 30.7647 21.5375 30.2753 21.9011 30.1149C22.2254 29.9719 22.893 29.9612 23.4807 29.9517C24.7475 29.9315 26.3234 29.9059 27.4419 28.714C28.5605 27.5222 28.582 25.8463 28.6048 24.4981C28.6137 23.8725 28.6238 23.162 28.7581 22.8168C28.9089 22.4299 29.3687 21.9189 29.8146 21.4241C30.6748 20.4696 31.7464 19.2804 31.7464 17.6558C31.7464 16.0312 30.6748 14.842 29.8146 13.8875ZM27.6206 19.1847C27.01 19.8588 26.3183 20.63 25.9497 21.5792C25.5925 22.496 25.5785 23.4883 25.5696 24.4496C25.5595 25.1722 25.5456 26.1632 25.2973 26.4261C25.049 26.689 24.1192 26.7052 23.4402 26.7159C22.537 26.7308 21.6046 26.7456 20.7432 27.1204C19.8565 27.5128 19.1306 28.2489 18.4934 28.8987C18.0374 29.3639 17.3559 30.0596 17.0519 30.0596C16.7478 30.0596 16.0663 29.3639 15.6153 28.9041C14.9819 28.2543 14.2574 27.5181 13.3655 27.1258C12.5041 26.7456 11.5718 26.7308 10.6686 26.7213C9.98959 26.7106 9.05851 26.6957 8.81149 26.4315C8.56447 26.1672 8.54926 25.1776 8.53913 24.455C8.5252 23.4937 8.51126 22.5014 8.1591 21.5846C7.79047 20.6408 7.09881 19.8683 6.48822 19.1901C6.05118 18.7047 5.39753 17.9794 5.39753 17.6558C5.39753 17.3322 6.05118 16.6069 6.48315 16.1269C7.09374 15.4528 7.7854 14.6816 8.15403 13.7324C8.51126 12.8156 8.5252 11.8233 8.53406 10.862C8.54926 10.1394 8.56447 9.14843 8.81782 8.89227C9.07118 8.6361 9.99592 8.61318 10.6749 8.6024C11.5781 8.58757 12.5105 8.57274 13.3719 8.19793C14.2586 7.80559 14.9845 7.06945 15.6217 6.4196C16.0663 5.94772 16.7478 5.25203 17.0519 5.25203C17.3559 5.25203 18.0374 5.94772 18.4884 6.40747C19.1218 7.05732 19.8464 7.79346 20.7382 8.18579C21.5996 8.566 22.5319 8.58083 23.4351 8.59026C24.1141 8.60105 25.0452 8.61588 25.2922 8.88013C25.5392 9.14439 25.5544 10.134 25.5646 10.8566C25.5785 11.8179 25.5925 12.8102 25.9446 13.727C26.3132 14.6708 27.0049 15.4433 27.6155 16.1215C28.0475 16.6015 28.7011 17.3268 28.7011 17.6504C28.7011 17.974 28.0525 18.7047 27.6206 19.1847ZM23.1944 13.2754C23.3362 13.4257 23.4486 13.6043 23.5253 13.801C23.6021 13.9976 23.6416 14.2084 23.6416 14.4214C23.6416 14.6343 23.6021 14.8452 23.5253 15.0418C23.4486 15.2385 23.3362 15.4171 23.1944 15.5674L16.1005 23.1175C15.9593 23.2683 15.7915 23.388 15.6067 23.4697C15.4219 23.5513 15.2238 23.5934 15.0237 23.5934C14.8237 23.5934 14.6256 23.5513 14.4408 23.4697C14.256 23.388 14.0882 23.2683 13.947 23.1175L10.9067 19.8817C10.7653 19.7312 10.6532 19.5526 10.5766 19.356C10.5001 19.1593 10.4607 18.9486 10.4607 18.7357C10.4607 18.5229 10.5001 18.3122 10.5766 18.1155C10.6532 17.9189 10.7653 17.7402 10.9067 17.5897C11.0481 17.4392 11.216 17.3199 11.4008 17.2384C11.5855 17.157 11.7835 17.115 11.9835 17.115C12.1835 17.115 12.3815 17.157 12.5662 17.2384C12.751 17.3199 12.9188 17.4392 13.0602 17.5897L15.025 19.6782L21.0435 13.2713C21.1849 13.1212 21.3527 13.0022 21.5374 12.9211C21.7221 12.84 21.92 12.7985 22.1197 12.7989C22.3195 12.7992 22.5173 12.8415 22.7017 12.9233C22.8861 13.005 23.0535 13.1247 23.1944 13.2754Z" fill="#0A06C2"/>
</svg>
