<svg width="33" height="32" viewBox="0 0 33 32" fill="none" xmlns="http://www.w3.org/2000/svg">
<path d="M28.6986 26.4419C26.7223 23.0504 23.6197 20.6706 20.0146 19.6614C21.7673 18.7766 23.1689 17.3313 23.9933 15.5586C24.8178 13.786 25.017 11.7892 24.5589 9.89035C24.1008 7.99147 23.0121 6.30115 21.4683 5.09194C19.9245 3.88272 18.0156 3.2251 16.0494 3.2251C14.0832 3.2251 12.1743 3.88272 10.6305 5.09194C9.08673 6.30115 7.99801 7.99147 7.53992 9.89035C7.08183 11.7892 7.28107 13.786 8.10551 15.5586C8.92995 17.3313 10.3315 18.7766 12.0843 19.6614C8.47916 20.6694 5.37656 23.0492 3.40024 26.4419C3.34597 26.5267 3.30953 26.6215 3.29312 26.7206C3.2767 26.8198 3.28064 26.9212 3.30471 27.0187C3.32877 27.1163 3.37247 27.208 3.43315 27.2884C3.49384 27.3688 3.57028 27.4361 3.65785 27.4864C3.74543 27.5367 3.84234 27.5688 3.94276 27.5809C4.04317 27.593 4.14502 27.5849 4.24217 27.5569C4.33932 27.5289 4.42976 27.4817 4.50806 27.4181C4.58636 27.3545 4.6509 27.2758 4.69778 27.1868C7.09912 23.0666 11.3418 20.6073 16.0494 20.6073C20.7571 20.6073 24.9997 23.0666 27.4011 27.1868C27.4479 27.2758 27.5125 27.3545 27.5908 27.4181C27.6691 27.4817 27.7595 27.5289 27.8567 27.5569C27.9538 27.5849 28.0557 27.593 28.1561 27.5809C28.2565 27.5688 28.3534 27.5367 28.441 27.4864C28.5286 27.4361 28.605 27.3688 28.6657 27.2884C28.7264 27.208 28.7701 27.1163 28.7941 27.0187C28.8182 26.9212 28.8221 26.8198 28.8057 26.7206C28.7893 26.6215 28.7529 26.5267 28.6986 26.4419ZM8.79917 11.9175C8.79917 10.4934 9.22439 9.10137 10.0211 7.91731C10.8177 6.73325 11.9501 5.81039 13.2749 5.26543C14.5997 4.72046 16.0575 4.57788 17.4639 4.8557C18.8703 5.13352 20.1622 5.81926 21.1761 6.82622C22.1901 7.83318 22.8806 9.11612 23.1604 10.5128C23.4401 11.9095 23.2965 13.3572 22.7478 14.6729C22.199 15.9885 21.2697 17.113 20.0774 17.9042C18.8851 18.6954 17.4834 19.1176 16.0494 19.1176C14.1272 19.1153 12.2845 18.356 10.9253 17.0062C9.5661 15.6564 8.80149 13.8264 8.79917 11.9175Z" fill="#6564DB"/>
</svg>
