<svg width="148" height="85" viewBox="0 0 148 85" fill="none" xmlns="http://www.w3.org/2000/svg">
<path d="M98.0659 31.0388L99.0873 29.9403L99.1365 29.986L99.1813 30.0359L98.0659 31.0388ZM146.433 83.2476C146.389 84.0749 145.683 84.7099 144.856 84.6659L131.375 83.9496C130.547 83.9057 129.912 83.1994 129.956 82.3722C130 81.5449 130.706 80.9099 131.534 80.9539L143.517 81.5906L144.154 69.6075C144.197 68.7802 144.904 68.1452 145.731 68.1892C146.558 68.2331 147.193 68.9394 147.149 69.7666L146.433 83.2476ZM21.7263 1.52898L21.7263 0.0289768L21.7719 0.0289766L21.8174 0.0317497L21.7263 1.52898ZM41.2263 2.71632L41.3174 1.21909L41.3842 1.22316L41.4503 1.23315L41.2263 2.71632ZM53.2263 4.52898L53.4503 3.0458L53.5456 3.0602L53.6384 3.08669L53.2263 4.52898ZM63.7263 7.52898L64.1383 6.08669L64.2344 6.11414L64.326 6.15408L63.7263 7.52898ZM74.4804 12.2199L75.0801 10.845L75.201 10.8978L75.3109 10.9708L74.4804 12.2199ZM86.2263 20.029L87.0567 18.7798L87.1584 18.8474L87.2477 18.9305L86.2263 20.029ZM99.1813 30.0359L146.051 82.1651L143.82 84.1709L96.9504 32.0417L99.1813 30.0359ZM0.726252 0.0290518L21.7263 0.0289768L21.7263 3.02898L0.726263 3.02905L0.726252 0.0290518ZM21.8174 0.0317497L41.3174 1.21909L41.1351 4.21355L21.6351 3.0262L21.8174 0.0317497ZM41.4503 1.23315L53.4503 3.0458L53.0022 6.01215L41.0022 4.1995L41.4503 1.23315ZM53.6384 3.08669L64.1383 6.08669L63.3142 8.97126L52.8142 5.97126L53.6384 3.08669ZM64.326 6.15408L75.0801 10.845L73.8807 13.5948L63.1265 8.90387L64.326 6.15408ZM75.3109 10.9708L87.0567 18.7798L85.3958 21.2781L73.6499 13.469L75.3109 10.9708ZM87.2477 18.9305L99.0873 29.9403L97.0444 32.1372L85.2048 21.1274L87.2477 18.9305Z" fill="white"/>
</svg>
