<svg width="40" height="40" viewBox="0 0 40 40" fill="none" xmlns="http://www.w3.org/2000/svg">
<path d="M20 3.33337C29.205 3.33337 36.6667 10.795 36.6667 20C36.6667 29.205 29.205 36.6667 20 36.6667C10.795 36.6667 3.33337 29.205 3.33337 20C3.33337 10.795 10.795 3.33337 20 3.33337ZM20 6.66671C16.4638 6.66671 13.0724 8.07147 10.572 10.572C8.07147 13.0724 6.66671 16.4638 6.66671 20C6.66671 23.5363 8.07147 26.9276 10.572 29.4281C13.0724 31.9286 16.4638 33.3334 20 33.3334C23.5363 33.3334 26.9276 31.9286 29.4281 29.4281C31.9286 26.9276 33.3334 23.5363 33.3334 20C33.3334 16.4638 31.9286 13.0724 29.4281 10.572C26.9276 8.07147 23.5363 6.66671 20 6.66671ZM20 10C20.4083 10.0001 20.8023 10.15 21.1073 10.4212C21.4124 10.6925 21.6073 11.0663 21.655 11.4717L21.6667 11.6667V19.31L26.1784 23.8217C26.4773 24.1216 26.6508 24.5241 26.6638 24.9473C26.6767 25.3706 26.528 25.7829 26.248 26.1005C25.9679 26.4181 25.5775 26.6172 25.1559 26.6574C24.7344 26.6975 24.3134 26.5757 23.9784 26.3167L23.8217 26.1784L18.8217 21.1784C18.5627 20.9191 18.3963 20.5817 18.3484 20.2184L18.3334 20V11.6667C18.3334 11.2247 18.509 10.8008 18.8215 10.4882C19.1341 10.1756 19.558 10 20 10Z" fill="black"/>
</svg>
