<svg width="37" height="33" viewBox="0 0 37 33" fill="none" xmlns="http://www.w3.org/2000/svg">
<path d="M28.7608 2.18435C28.6161 1.89513 28.3937 1.65191 28.1185 1.48191C27.8434 1.31192 27.5264 1.22185 27.203 1.2218H9.79707C9.13738 1.2218 8.53514 1.59429 8.23924 2.18435L1.27687 16.1091C1.15587 16.3509 1.09286 16.6176 1.09286 16.888C1.09286 17.1584 1.15587 17.4251 1.27687 17.6669L8.23924 31.5916C8.53514 32.18 9.13738 32.5524 9.79707 32.5524H27.203C27.8627 32.5524 28.4649 32.18 28.7608 31.5899L35.7232 17.6652C35.8442 17.4233 35.9072 17.1567 35.9072 16.8863C35.9072 16.6158 35.8442 16.3492 35.7232 16.1073L28.7608 2.18435ZM34.0161 16.1073L17.9032 15.6936L11.3387 2.56454H27.4516L34.0161 16.1073ZM2.38709 16.888L9.79707 2.81089L16.7097 16.8871L9.54838 30.6129L2.38709 16.888ZM27.4516 31.2097H10.7419L17.9032 17.4839L34.0161 17.6652L27.4516 31.2097Z" fill="white"/>
</svg>
