<svg width="38" height="38" viewBox="0 0 38 38" fill="none" xmlns="http://www.w3.org/2000/svg">
<g clip-path="url(#clip0_775_40)">
<path d="M23.595 13.832L36.697 4.79M36.697 4.79L34.861 25.09L23.291 37.352M36.697 4.79L16.628 0.5L1.377 6.94M9.423 30.912L7.817 9.081M15.937 34.058L15.401 11.148M2.299 14.829L23.134 22.488M22.986 30.377L2.991 22.026M23.216 30.377L35.165 19.194M23.365 22.413L35.931 12.227M33.098 7.319L31.484 28.466M28.726 10.234L27.729 32.37M15.319 11.074L28.956 3.185M7.735 9.007L22.755 1.883M7.512 4.412L28.726 10.152M33.016 7.319L12.412 2.493M1.303 7.014L23.521 13.758L23.134 37.5L3.526 28.161L1.303 7.014Z" stroke="white" stroke-linecap="round" stroke-linejoin="round"/>
</g>
<defs>
<clipPath id="clip0_775_40">
<rect width="38" height="38" fill="white"/>
</clipPath>
</defs>
</svg>
