<svg width="55" height="58" viewBox="0 0 55 58" fill="none" xmlns="http://www.w3.org/2000/svg">
<path d="M27.7634 0.415894C34.9193 0.415894 41.7821 3.40658 46.8421 8.73004C51.902 14.0535 54.7447 21.2737 54.7447 28.8022C54.7447 36.3307 51.902 43.5508 46.8421 48.8743C41.7821 54.1978 34.9193 57.1884 27.7634 57.1884C20.6076 57.1884 13.7448 54.1978 8.6848 48.8743C3.62483 43.5508 0.782166 36.3307 0.782166 28.8022C0.782166 21.2737 3.62483 14.0535 8.6848 8.73004C13.7448 3.40658 20.6076 0.415894 27.7634 0.415894ZM5.84115 28.8022C5.84115 34.9191 8.15081 40.7855 12.262 45.1108C16.3733 49.4361 21.9493 51.866 27.7634 51.866C33.5776 51.866 39.1536 49.4361 43.2648 45.1108C47.376 40.7855 49.6857 34.9191 49.6857 28.8022C49.6857 22.6853 47.376 16.8189 43.2648 12.4936C39.1536 8.16825 33.5776 5.73832 27.7634 5.73832C21.9493 5.73832 16.3733 8.16825 12.262 12.4936C8.15081 16.8189 5.84115 22.6853 5.84115 28.8022ZM22.2964 18.9628L36.6774 28.0428C36.8016 28.1218 36.9044 28.2332 36.9758 28.3662C37.0471 28.4993 37.0846 28.6494 37.0846 28.8022C37.0846 28.9549 37.0471 29.1051 36.9758 29.2381C36.9044 29.3711 36.8016 29.4825 36.6774 29.5615L22.2964 38.6416C22.1685 38.7226 22.0224 38.7665 21.8731 38.7687C21.7239 38.7709 21.5767 38.7314 21.4467 38.6542C21.3167 38.5769 21.2085 38.4648 21.1332 38.3291C21.0579 38.1935 21.0182 38.0393 21.0181 37.8822V19.7257C21.0176 19.5683 21.0569 19.4136 21.132 19.2775C21.207 19.1414 21.3151 19.0287 21.4452 18.9511C21.5753 18.8734 21.7227 18.8336 21.8723 18.8356C22.0219 18.8377 22.1682 18.8816 22.2964 18.9628Z" fill="black"/>
</svg>
