<svg width="32" height="32" viewBox="0 0 32 32" fill="none" xmlns="http://www.w3.org/2000/svg">
<path d="M21.414 28.728C21.7889 28.3529 21.9995 27.8443 21.9995 27.314C21.9995 26.7837 21.7889 26.2751 21.414 25.9L11.514 16L21.414 6.09999C21.7783 5.72279 21.9799 5.21759 21.9753 4.69319C21.9708 4.1688 21.7604 3.66717 21.3896 3.29636C21.0188 2.92554 20.5172 2.7152 19.9928 2.71065C19.4684 2.70609 18.9632 2.90768 18.586 3.272L7.27197 14.586C6.89703 14.9611 6.6864 15.4697 6.6864 16C6.6864 16.5303 6.89703 17.0389 7.27197 17.414L18.586 28.728C18.961 29.1029 19.4696 29.3136 20 29.3136C20.5303 29.3136 21.0389 29.1029 21.414 28.728Z" fill="white"/>
</svg>
