<svg width="40" height="43" viewBox="0 0 40 43" fill="none" xmlns="http://www.w3.org/2000/svg">
<path d="M24.908 10.8538C24.8117 11.1135 24.6214 11.3222 24.379 11.4342C24.1366 11.5463 23.8619 11.5524 23.6153 11.4514C21.4781 10.5726 19.1188 10.495 16.9337 11.2317C14.7486 11.9684 12.8708 13.4744 11.6158 15.4969C10.3607 17.5193 9.80489 19.935 10.0416 22.3381C10.2783 24.7411 11.2931 26.9852 12.9156 28.6934C13.011 28.7905 13.0872 28.9065 13.1395 29.0349C13.1919 29.1632 13.2194 29.3013 13.2206 29.441C13.2217 29.5806 13.1965 29.7192 13.1462 29.8484C13.096 29.9777 13.0218 30.0952 12.928 30.194C12.8342 30.2927 12.7227 30.3708 12.5999 30.4237C12.4771 30.4766 12.3456 30.5033 12.2129 30.502C12.0803 30.5008 11.9492 30.4718 11.8273 30.4167C11.7054 30.3615 11.5952 30.2814 11.503 30.1809C9.55375 28.132 8.33389 25.4389 8.04856 22.5543C7.76322 19.6698 8.4298 16.7697 9.93622 14.3418C11.4426 11.9139 13.697 10.1062 16.3203 9.22271C18.9435 8.3392 21.7757 8.43375 24.3405 9.49046C24.4629 9.54069 24.5746 9.6158 24.6693 9.71152C24.7641 9.80724 24.8399 9.92168 24.8926 10.0483C24.9453 10.1749 24.9738 10.3112 24.9765 10.4495C24.9791 10.5877 24.9558 10.7251 24.908 10.8538ZM29.8592 16.0654C30.1061 15.9644 30.3811 15.9709 30.6235 16.0833C30.8659 16.1958 31.056 16.405 31.1519 16.665C31.9981 18.9499 32.194 21.4449 31.7157 23.8451C31.2374 26.2453 30.1056 28.4469 28.4586 30.1809C28.3664 30.2814 28.2562 30.3615 28.1343 30.4167C28.0124 30.4718 27.8813 30.5008 27.7486 30.502C27.616 30.5033 27.4844 30.4766 27.3617 30.4237C27.2389 30.3708 27.1273 30.2927 27.0335 30.194C26.9397 30.0952 26.8656 29.9777 26.8153 29.8484C26.7651 29.7192 26.7398 29.5806 26.741 29.441C26.7421 29.3013 26.7697 29.1632 26.822 29.0349C26.8744 28.9065 26.9505 28.7905 27.0459 28.6934C28.4186 27.2482 29.3618 25.4132 29.7602 23.4128C30.1587 21.4123 29.9952 19.333 29.2898 17.4288C29.2419 17.3 29.2187 17.1626 29.2213 17.0244C29.2239 16.8862 29.2524 16.7498 29.3051 16.6232C29.3578 16.4966 29.4337 16.3822 29.5284 16.2864C29.6232 16.1907 29.7349 16.1156 29.8572 16.0654H29.8592ZM28.1429 12.4571C27.9667 12.299 27.7438 12.2104 27.5124 12.2061C27.281 12.2019 27.0554 12.2824 26.8741 12.4339L26.5204 12.7285C25.2446 13.7973 23.9725 14.871 22.7041 15.9497C21.6412 16.8565 20.5502 17.7948 19.6811 18.5628C19.2455 18.9457 18.8619 19.2908 18.5622 19.5685C18.3202 19.7839 18.0906 20.0143 17.8748 20.2586C17.6193 20.5738 17.4252 20.939 17.3036 21.3333C17.1821 21.7275 17.1355 22.1431 17.1664 22.5563C17.1974 22.9695 17.3054 23.3723 17.4842 23.7415C17.663 24.1108 17.9091 24.4394 18.2085 24.7085C18.5079 24.9776 18.8547 25.182 19.2291 25.31C19.6035 25.438 19.9981 25.487 20.3906 25.4544C20.783 25.4218 21.1654 25.3081 21.5161 25.1198C21.8668 24.9315 22.1788 24.6724 22.4344 24.3571C22.5783 24.1804 22.7741 23.869 22.9739 23.5366C23.1877 23.1789 23.4514 22.7266 23.7431 22.2153C24.3266 21.1885 25.0339 19.9093 25.7192 18.6596C26.5329 17.172 27.3407 15.681 28.1429 14.1865L28.3646 13.7742C28.4787 13.5618 28.5192 13.3144 28.4791 13.0741C28.439 12.8338 28.3208 12.6157 28.1449 12.4571H28.1429ZM19.9808 38.0855C24.2201 38.0855 28.2859 36.3122 31.2835 33.1556C34.2812 29.9991 35.9653 25.7178 35.9653 21.2538C35.9653 16.7897 34.2812 12.5085 31.2835 9.35191C28.2859 6.19534 24.2201 4.422 19.9808 4.422C15.7414 4.422 11.6757 6.19534 8.67803 9.35191C5.68035 12.5085 3.99628 16.7897 3.99628 21.2538C3.99628 25.7178 5.68035 29.9991 8.67803 33.1556C11.6757 36.3122 15.7414 38.0855 19.9808 38.0855ZM19.9808 35.9816C18.1441 35.9816 16.3253 35.6006 14.6284 34.8605C12.9315 34.1203 11.3896 33.0355 10.0909 31.6679C8.79211 30.3003 7.76188 28.6767 7.05899 26.8899C6.35611 25.103 5.99434 23.1879 5.99434 21.2538C5.99434 19.3197 6.35611 17.4045 7.05899 15.6177C7.76188 13.8308 8.79211 12.2072 10.0909 10.8396C11.3896 9.47204 12.9315 8.3872 14.6284 7.64706C16.3253 6.90691 18.1441 6.52597 19.9808 6.52597C23.6902 6.52597 27.2477 8.07764 29.8707 10.8396C32.4936 13.6016 33.9672 17.3477 33.9672 21.2538C33.9672 25.1598 32.4936 28.9059 29.8707 31.6679C27.2477 34.4299 23.6902 35.9816 19.9808 35.9816Z" fill="#0A06C2"/>
</svg>
